<svg width="36" height="36" viewBox="0 0 36 36" fill="none" xmlns="http://www.w3.org/2000/svg">
<circle cx="18" cy="18" r="18" fill="#54DEE8"/>
<path d="M22.5738 29.6557H19.7705L19.8219 21.5308L18.4426 21.541L19.3279 18.8852H19.8387L19.918 6.34424H23.9016C26.7344 6.34424 27.4426 8.40981 27.4426 9.4426V17.7049C27.4918 18.5901 27.1475 20.0655 26.5574 20.3606C27.0295 20.3606 27.3934 21.6393 27.4426 22.2787V29.6557H24.7869V22.4262C24.7869 21.718 24.1967 21.541 23.9016 21.541H22.5738V29.6557Z" fill="black"/>
<path d="M22.5738 8.85248V18.8853H23.9017C24.6099 18.8853 24.7869 18.1967 24.7869 17.8525V9.88526C24.7869 9.05904 24.0984 8.85248 23.7541 8.85248H22.5738Z" fill="#54DEE8"/>
<path d="M12.541 29.6558H9.7377L9.84886 21.541H8.55737L9.44262 18.8853H9.88524V6.04919H14.0164C16.2295 6.04919 17.5574 8.40985 17.5574 9.59018V18.4426C17.5574 20.8033 14.9016 21.541 12.541 21.541V29.6558Z" fill="#020202"/>
<path d="M12.541 18.8854V8.8526H13.7213C14.7836 8.8526 14.9016 9.73785 14.9016 10.4756V17.7051C14.9016 19.0329 14.0164 18.8854 12.541 18.8854Z" fill="#54DEE8"/>
</svg>
