<svg width="18" height="18" viewBox="0 0 18 18" fill="none" xmlns="http://www.w3.org/2000/svg">
<path d="M8.992 18C8.765 18 8.54 17.992 8.324 17.975C7.84875 17.9311 7.40283 17.7259 7.0603 17.3936C6.71776 17.0612 6.49923 16.6217 6.441 16.148L6.37 15.657C6.33544 15.5035 6.26619 15.36 6.16756 15.2375C6.06893 15.1149 5.94353 15.0166 5.801 14.95C5.677 14.883 5.554 14.812 5.436 14.738C5.2538 14.6194 5.04231 14.5536 4.825 14.548C4.72721 14.5469 4.63013 14.5645 4.539 14.6L4.077 14.784C3.81279 14.8887 3.5312 14.9427 3.247 14.943C2.91481 14.9485 2.58644 14.8716 2.2912 14.7193C1.99595 14.567 1.74302 14.3439 1.555 14.07C1.30316 13.6998 1.07921 13.3114 0.884995 12.908C0.685653 12.4746 0.640739 11.986 0.757727 11.5235C0.874715 11.061 1.14655 10.6525 1.528 10.366L1.919 10.056C2.03483 9.94993 2.12475 9.81866 2.18179 9.67232C2.23884 9.52598 2.26149 9.36848 2.248 9.212C2.248 9.149 2.248 9.079 2.248 9C2.248 8.921 2.248 8.851 2.248 8.788C2.26149 8.63152 2.23884 8.47402 2.18179 8.32768C2.12475 8.18134 2.03483 8.05007 1.919 7.944L1.528 7.634C1.1467 7.34738 0.874979 6.93889 0.758003 6.47645C0.641027 6.014 0.685841 5.52545 0.884995 5.092C1.07904 4.6885 1.303 4.30008 1.555 3.93C1.74302 3.6561 1.99595 3.43303 2.2912 3.2807C2.58644 3.12836 2.91481 3.05151 3.247 3.057C3.5312 3.05734 3.81279 3.11128 4.077 3.216L4.539 3.4C4.63013 3.43545 4.72721 3.4531 4.825 3.452C5.04231 3.44636 5.2538 3.38059 5.436 3.262C5.554 3.188 5.677 3.116 5.801 3.05C5.94362 2.98356 6.06909 2.88526 6.16774 2.76269C6.26639 2.64011 6.33558 2.49653 6.37 2.343L6.441 1.853C6.49916 1.37908 6.71762 0.939287 7.06012 0.606606C7.40262 0.273924 7.84858 0.0683519 8.324 0.024C8.54399 0.008 8.768 0 8.992 0C9.216 0 9.441 0.008 9.661 0.024C10.1362 0.0681685 10.582 0.273575 10.9244 0.606104C11.2667 0.938633 11.485 1.37827 11.543 1.852L11.615 2.342C11.6489 2.49558 11.7179 2.63926 11.8164 2.76188C11.9149 2.8845 12.0403 2.98275 12.183 3.049C12.302 3.112 12.422 3.182 12.549 3.261C12.7312 3.37959 12.9427 3.44536 13.16 3.451C13.2581 3.45216 13.3555 3.43451 13.447 3.399L13.908 3.215C14.1722 3.11035 14.4538 3.05641 14.738 3.056C15.0702 3.0506 15.3985 3.12749 15.6937 3.27982C15.989 3.43214 16.2419 3.65517 16.43 3.929C16.6827 4.29902 16.9073 4.68744 17.102 5.091C17.3011 5.52445 17.346 6.013 17.229 6.47545C17.112 6.93789 16.8403 7.34638 16.459 7.633L16.067 7.943C15.9512 8.04907 15.8614 8.18037 15.8045 8.32673C15.7477 8.47309 15.7252 8.63058 15.739 8.787C15.739 8.857 15.739 8.928 15.739 8.999C15.739 9.07 15.739 9.141 15.739 9.211C15.7252 9.36742 15.7477 9.52491 15.8045 9.67127C15.8614 9.81763 15.9512 9.94893 16.067 10.055L16.459 10.365C16.8404 10.6515 17.1123 11.06 17.2293 11.5225C17.3463 11.985 17.3013 12.4736 17.102 12.907C16.9071 13.3105 16.6825 13.6989 16.43 14.069C16.2419 14.3428 15.989 14.5659 15.6937 14.7182C15.3985 14.8705 15.0702 14.9474 14.738 14.942C14.4538 14.9416 14.1722 14.8876 13.908 14.783L13.447 14.599C13.3555 14.5635 13.2581 14.5458 13.16 14.547C12.9427 14.5526 12.7312 14.6184 12.549 14.737C12.421 14.817 12.302 14.886 12.183 14.949C12.0405 15.0154 11.9151 15.1137 11.8166 15.2363C11.7182 15.3589 11.6492 15.5025 11.615 15.656L11.543 16.147C11.4852 16.6207 11.2669 17.0603 10.9245 17.3927C10.5821 17.7251 10.1362 17.9302 9.661 17.974C9.445 17.992 9.22 18 8.992 18ZM4.81899 13.046C5.31779 13.0535 5.80491 13.1981 6.22699 13.464C6.33999 13.533 6.427 13.584 6.511 13.628C6.8618 13.8034 7.16627 14.059 7.39964 14.3742C7.633 14.6894 7.78868 15.0553 7.854 15.442L7.92499 15.932C7.93521 16.0673 7.99101 16.1952 8.08327 16.2947C8.17554 16.3943 8.29882 16.4596 8.433 16.48C8.613 16.493 8.801 16.5 8.992 16.5C9.183 16.5 9.371 16.493 9.551 16.48C9.68517 16.4596 9.80845 16.3943 9.90072 16.2947C9.99298 16.1952 10.0488 16.0673 10.059 15.932L10.13 15.442C10.1955 15.0552 10.3514 14.6893 10.5849 14.3741C10.8184 14.0589 11.123 13.8033 11.474 13.628C11.565 13.579 11.654 13.528 11.759 13.464C12.1807 13.198 12.6675 13.0534 13.166 13.046C13.4523 13.0452 13.736 13.0991 14.002 13.205L14.463 13.389C14.55 13.4246 14.643 13.4433 14.737 13.444C14.825 13.4469 14.9123 13.4284 14.9916 13.39C15.0708 13.3517 15.1396 13.2947 15.192 13.224C15.4022 12.9157 15.589 12.5921 15.751 12.256C15.8016 12.1302 15.8073 11.9909 15.7672 11.8614C15.7272 11.732 15.6438 11.6202 15.531 11.545L15.139 11.234C14.8364 10.9848 14.5971 10.6675 14.4407 10.3081C14.2842 9.94864 14.2151 9.55727 14.239 9.166V9V8.834C14.2152 8.44259 14.2843 8.0511 14.4408 7.69152C14.5972 7.33193 14.8364 7.01445 15.139 6.765L15.531 6.455C15.6438 6.37962 15.7273 6.2677 15.7674 6.13804C15.8074 6.00839 15.8016 5.8689 15.751 5.743C15.589 5.40686 15.4022 5.08329 15.192 4.775C15.1396 4.70399 15.0707 4.64678 14.9912 4.60828C14.9118 4.56978 14.8242 4.55116 14.736 4.554C14.6423 4.55479 14.5497 4.57346 14.463 4.609L14.002 4.794C13.7357 4.8998 13.4516 4.95376 13.165 4.953C12.6668 4.94577 12.1802 4.80112 11.759 4.535C11.669 4.481 11.572 4.424 11.474 4.37C11.1231 4.19516 10.8185 3.9399 10.5849 3.62502C10.3514 3.31014 10.1955 2.94454 10.13 2.558L10.059 2.068C10.0498 1.93242 9.99434 1.80411 9.90187 1.70453C9.8094 1.60496 9.68553 1.54017 9.551 1.521C9.371 1.508 9.183 1.501 8.992 1.501C8.801 1.501 8.613 1.508 8.433 1.521C8.29846 1.54017 8.1746 1.60496 8.08212 1.70453C7.98965 1.80411 7.93418 1.93242 7.92499 2.068L7.854 2.558C7.78894 2.94455 7.63347 3.31026 7.40026 3.62532C7.16705 3.94038 6.86269 4.19588 6.512 4.371C6.427 4.416 6.337 4.471 6.228 4.536C5.80635 4.80206 5.31951 4.94669 4.821 4.954C4.5347 4.95422 4.25098 4.89992 3.985 4.794L3.525 4.609C3.4383 4.57353 3.34566 4.55487 3.252 4.554C3.16376 4.55107 3.07614 4.56966 2.99669 4.60816C2.91725 4.64667 2.84837 4.70393 2.796 4.775C2.5855 5.08328 2.39831 5.40685 2.236 5.743C2.18592 5.86897 2.18043 6.00828 2.22045 6.13779C2.26047 6.26731 2.34359 6.37924 2.456 6.455L2.848 6.765C3.15068 7.01434 3.39003 7.33181 3.54646 7.69142C3.70289 8.05103 3.77195 8.44257 3.748 8.834V9V9.166C3.77203 9.55729 3.703 9.94871 3.54656 10.3082C3.39012 10.6676 3.15073 10.9849 2.848 11.234L2.456 11.545C2.34352 11.6205 2.26033 11.7322 2.22029 11.8616C2.18026 11.991 2.1858 12.1302 2.236 12.256C2.39815 12.5922 2.58534 12.9158 2.796 13.224C2.84832 13.2948 2.91707 13.3518 2.99634 13.3902C3.0756 13.4285 3.163 13.447 3.251 13.444C3.34499 13.4432 3.43798 13.4245 3.525 13.389L3.985 13.205C4.25037 13.0995 4.53342 13.0455 4.81899 13.046ZM8.992 12.746C8.25015 12.746 7.52496 12.526 6.90819 12.1137C6.29142 11.7015 5.81078 11.1156 5.52707 10.4301C5.24336 9.74468 5.16933 8.99048 5.31435 8.26294C5.45936 7.5354 5.81692 6.86722 6.34176 6.34294C6.86661 5.81865 7.53517 5.46181 8.26286 5.31757C8.99055 5.17333 9.74468 5.24816 10.4298 5.5326C11.115 5.81704 11.7004 6.29831 12.112 6.91552C12.5235 7.53273 12.7428 8.25815 12.742 9C12.7409 9.99424 12.3455 10.9474 11.6425 11.6505C10.9394 12.3535 9.98623 12.7489 8.992 12.75V12.746ZM8.992 6.746C8.54716 6.746 8.1123 6.87786 7.74238 7.12492C7.37246 7.37197 7.08407 7.72314 6.91365 8.13404C6.74324 8.54494 6.69845 8.99714 6.78494 9.43348C6.87143 9.86983 7.08533 10.2708 7.3996 10.5856C7.71386 10.9004 8.1144 11.115 8.5506 11.2023C8.98679 11.2895 9.43906 11.2456 9.85027 11.0759C10.2615 10.9062 10.6131 10.6184 10.8609 10.2489C11.1086 9.87946 11.2412 9.44484 11.242 9C11.2412 8.40351 11.0039 7.83167 10.5821 7.40989C10.1603 6.9881 9.58849 6.75079 8.992 6.75V6.746Z" fill="#686969"/>
</svg>
