<svg width="18" height="18" viewBox="0 0 18 18" fill="none" xmlns="http://www.w3.org/2000/svg">
<path fill-rule="evenodd" clip-rule="evenodd" d="M8.00614 17.7755V9.58054L0.595436 5.22596C0.565079 5.37639 0.549727 5.5301 0.549991 5.68485V12.3169C0.550281 12.7292 0.661108 13.1338 0.870929 13.4888C1.08075 13.8437 1.38189 14.1359 1.74299 14.3349L7.88799 17.7149C7.92685 17.7362 7.96625 17.7564 8.00614 17.7755ZM1.8774 3.59096L9.04863 7.80063L16.1644 3.61872L10.11 0.285853C9.7699 0.0983405 9.38786 0 8.99949 0C8.61113 0 8.22909 0.0983405 7.88899 0.285853L1.8774 3.59096ZM17.4136 5.27802L10.0938 9.58054V17.7246C10.0992 17.7217 10.1046 17.7188 10.11 17.7159L16.256 14.3359C16.6176 14.1369 16.9192 13.8445 17.1293 13.4892C17.3393 13.1338 17.4501 12.7286 17.45 12.3159V5.68485C17.4499 5.54788 17.4377 5.41175 17.4136 5.27802Z" fill="#54DEE8"/>
</svg>
